<?xml version="1.0" encoding="UTF-8"?><svg id="_레이어_2" xmlns="http://www.w3.org/2000/svg" viewBox="0 0 1164.83 377.73"><defs><style>.cls-1{fill:#fff;}.cls-1,.cls-2{stroke:#2a3a51;stroke-miterlimit:10;}.cls-2,.cls-3{fill:#2a3a51;}.cls-3,.cls-4,.cls-5{stroke-width:0px;}.cls-4{fill:#576477;}.cls-5{fill:#0f69f5;}</style></defs><g id="_레이어_1-2"><rect class="cls-4" width="1164.83" height="377.73"/><path class="cls-3" d="M698.87,209.78c0-38-31-66.13-72.21-66.01-15.15-30.42-43.28-48.91-77.5-48.91-44.89,0-82.32,35.13-86.11,80.25-22.85,6.43-38.58,25.95-38.58,50.29v19.05c0,29.96,22.39,51.09,56.26,51.09h149.6c38.69,0,68.54-29.28,68.54-66.7v-19.05Z"/><path class="cls-3" d="M630.33,309.21h-149.6c-41.18,0-69.94-26.63-69.94-64.77v-19.05c0-26.67,15.64-49.9,39.77-60.34,3.77-21.8,14.51-41.79,30.79-56.99,18.56-17.34,42.64-26.89,67.8-26.89,35.86,0,67.37,18.24,85.78,49.22,21.49,1.69,40.8,10.2,55.03,24.39,14.56,14.52,22.58,34.05,22.58,54.99v19.05c0,45.08-36.12,80.39-82.22,80.39ZM549.16,108.53c-37.45,0-69.28,29.74-72.47,67.72l-.79,9.46-9.13,2.57c-17.37,4.89-28.6,19.46-28.6,37.12v19.05c0,22.73,16.71,37.41,42.57,37.41h149.6c30.76,0,54.86-23.29,54.86-53.02v-19.05c0-13.82-5.03-26.13-14.53-35.62-10.82-10.78-26.35-16.72-43.75-16.72h-.21l-8.5.02-3.79-7.6c-13.08-26.26-36.87-41.33-65.25-41.33Z"/><path class="cls-5" d="M698.87,209.78c0-38-31-66.13-72.21-66.01-15.15-30.42-43.28-48.91-77.5-48.91-44.89,0-82.32,35.13-86.11,80.25-22.85,6.43-38.58,25.95-38.58,50.29v19.05c0,29.96,22.39,51.09,56.26,51.09h149.6c38.69,0,68.54-29.28,68.54-66.7v-19.05Z"/><path class="cls-5" d="M630.33,302.89h-149.6c-37.45,0-63.61-24.03-63.61-58.45v-19.05c0-25.66,15.2-47.08,39.14-55.82,2.96-21.78,13.29-41.83,29.41-56.89,17.39-16.24,39.94-25.19,63.49-25.19,35.19,0,64.84,17.8,82,49,21.32.94,40.48,8.93,54.35,22.77,13.36,13.32,20.72,31.26,20.72,50.51v19.05c0,41.53-33.34,74.06-75.9,74.06ZM549.16,102.21c-40.71,0-75.31,32.29-78.77,73.51l-.43,5.09-4.91,1.38c-20.17,5.68-33.21,22.63-33.21,43.2v19.05c0,26.16,19.65,43.73,48.9,43.73h149.6c34.31,0,61.18-26.07,61.18-59.35v-19.05c0-15.53-5.67-29.4-16.39-40.09-12.01-11.98-29.12-18.56-48.21-18.56h-4.8s-2.04-4.08-2.04-4.08c-14.19-28.49-40.04-44.83-70.91-44.83Z"/><path class="cls-1" d="M480.73,275.11c-32.83,0-54.89-19.98-54.89-49.72,0-23.32,14.75-42.55,37.58-48.97l.91-.26.08-.94c3.72-44.3,40.94-79,84.74-79,33.23,0,61.03,17.55,76.27,48.15l.38.76h1.1c40.25,0,70.59,27.79,70.59,64.64s-29.51,65.34-67.17,65.34h-149.6Z"/><path class="cls-2" d="M549.16,97.59c32.69,0,60.04,17.27,75.05,47.39l.76,1.52h1.7s.24,0,.24,0c19.22,0,36.81,6.42,49.54,18.07,12.69,11.62,19.68,27.67,19.68,45.21s-6.72,33.52-18.94,45.43c-12.26,11.96-28.9,18.54-46.87,18.54h-149.6c-32.01,0-53.52-19.43-53.52-48.35,0-22.69,14.36-41.4,36.58-47.65l1.83-.51.16-1.89c1.78-21.17,11.29-40.8,26.78-55.27,15.51-14.49,35.61-22.47,56.6-22.47M549.16,94.85c-44.89,0-82.32,35.13-86.11,80.25-22.85,6.43-38.58,25.95-38.58,50.29,0,29.97,22.39,51.09,56.26,51.09h149.6c38.69,0,68.54-29.28,68.54-66.7s-30.88-66.01-71.96-66.02c-.09,0-.17,0-.25,0-15.15-30.42-43.28-48.91-77.5-48.91h0Z"/><path class="cls-3" d="M468.31,263.47c-3-1.21-5.38-2.94-7.13-5.2-1.75-2.26-2.74-4.96-2.96-8.09l-.04-.56h8.11l.07.48c.25,1.63.93,3.04,2.06,4.24,1.12,1.2,2.6,2.12,4.43,2.76,1.83.64,3.93.96,6.3.96s4.46-.33,6.19-1c1.73-.67,3.07-1.62,4.02-2.85.95-1.23,1.43-2.68,1.43-4.33v-.04c0-2.15-.77-3.86-2.31-5.13-1.54-1.27-4.09-2.29-7.65-3.06l-5.82-1.22c-5.24-1.11-9.14-2.9-11.7-5.35-2.57-2.46-3.85-5.66-3.85-9.61v-.04c.02-3.04.86-5.71,2.52-8.02s3.94-4.11,6.85-5.41c2.91-1.3,6.26-1.94,10.04-1.94s6.98.63,9.82,1.89c2.84,1.26,5.09,3.02,6.74,5.28,1.65,2.26,2.58,4.9,2.78,7.91l.04.59h-8.11l-.07-.48c-.22-1.68-.83-3.11-1.83-4.3s-2.3-2.09-3.91-2.72c-1.61-.63-3.47-.94-5.59-.94s-4.11.33-5.74.98c-1.63.65-2.89,1.56-3.78,2.72-.89,1.16-1.33,2.53-1.33,4.11v.04c0,2,.79,3.63,2.37,4.89,1.58,1.26,4.04,2.25,7.37,2.96l5.82,1.26c3.68.77,6.68,1.8,9,3.11,2.32,1.31,4.04,2.94,5.15,4.89,1.11,1.95,1.67,4.31,1.67,7.07v.04c0,3.26-.82,6.08-2.46,8.46-1.64,2.38-3.99,4.22-7.04,5.52-3.05,1.3-6.69,1.94-10.91,1.94-4,0-7.5-.61-10.5-1.81Z"/><path class="cls-3" d="M512.69,262.71c-2.78-1.64-4.93-3.98-6.46-7-1.53-3.02-2.3-6.62-2.3-10.8v-.07c0-4.15.77-7.73,2.32-10.74,1.54-3.01,3.7-5.33,6.48-6.96,2.78-1.63,6.01-2.45,9.69-2.45s6.94.81,9.72,2.43c2.78,1.62,4.94,3.93,6.48,6.95,1.54,3.01,2.32,6.61,2.32,10.78v.07c0,4.2-.77,7.8-2.32,10.82-1.54,3.01-3.7,5.34-6.46,6.98-2.77,1.64-6,2.46-9.71,2.46s-6.98-.82-9.76-2.46ZM527.89,256.84c1.53-1.06,2.72-2.6,3.56-4.61.84-2.01,1.26-4.45,1.26-7.32v-.07c0-2.84-.42-5.27-1.26-7.28-.84-2.01-2.04-3.54-3.59-4.59-1.56-1.05-3.37-1.57-5.44-1.57s-3.85.53-5.39,1.59c-1.54,1.06-2.75,2.59-3.61,4.59-.86,2-1.3,4.42-1.3,7.26v.07c0,2.86.43,5.3,1.28,7.32.85,2.01,2.06,3.55,3.61,4.61,1.56,1.06,3.38,1.59,5.48,1.59s3.88-.53,5.41-1.59Z"/><path class="cls-3" d="M547.08,225.43h8.07v6.67h.15c.62-2.3,1.72-4.11,3.3-5.43,1.58-1.32,3.48-1.98,5.7-1.98.59,0,1.13.03,1.61.09.48.06.87.13,1.17.2v7.44c-.32-.12-.8-.23-1.44-.31-.64-.09-1.36-.13-2.15-.13-1.7,0-3.19.36-4.44,1.09-1.26.73-2.22,1.78-2.89,3.15-.67,1.37-1,3.02-1,4.94v23.22h-8.07v-38.97Z"/><path class="cls-3" d="M575.86,263.62c-1.95-.99-3.47-2.37-4.56-4.15-1.09-1.78-1.63-3.83-1.63-6.15v-.07c0-2.27.57-4.23,1.7-5.87,1.14-1.64,2.78-2.95,4.94-3.91,2.16-.96,4.77-1.53,7.83-1.7l14.74-.89v5.63l-13.67.85c-2.4.15-4.24.72-5.54,1.72-1.3,1-1.94,2.33-1.94,3.98v.07c0,1.7.65,3.05,1.94,4.04,1.3.99,3.02,1.48,5.17,1.48,1.88,0,3.56-.38,5.06-1.15,1.49-.77,2.67-1.82,3.54-3.17.86-1.35,1.3-2.86,1.3-4.54v-11.59c0-2.15-.67-3.83-2-5.06-1.33-1.22-3.25-1.83-5.74-1.83-2.3,0-4.14.49-5.54,1.48-1.4.99-2.27,2.26-2.61,3.81l-.07.33h-7.56l.04-.41c.2-2.25.95-4.27,2.26-6.06,1.31-1.79,3.12-3.2,5.44-4.24,2.32-1.04,5.07-1.56,8.26-1.56s5.94.53,8.26,1.59c2.32,1.06,4.12,2.56,5.41,4.48,1.28,1.93,1.93,4.19,1.93,6.78v26.85h-8.07v-6.15h-.15c-.77,1.41-1.75,2.62-2.96,3.65-1.21,1.02-2.57,1.81-4.09,2.37-1.52.56-3.14.83-4.87.83-2.59,0-4.87-.49-6.82-1.48Z"/></g></svg>